{"title":"Uncaged (2016) 1080P WEB-DL DD5 1 H 264","uid":13411851,"size":3736926730,"categoryP":"video","categoryS":"hd___movies","magnet":"?xt=urn:btih:28112267e73961f192493999fb052844aabf9426&amp;dn=Uncaged+%282016%29+1080P+WEB-DL+DD5+1+H+264+&amp;tr=udp%3A%2F%2Ftracker.leechers-paradise.org%3A6969&amp;tr=udp%3A%2F%2Fzer0day.ch%3A1337&amp;tr=udp%3A%2F%2Fopen.demonii.com%3A1337&amp;tr=udp%3A%2F%2Ftracker.coppersurfer.tk%3A6969&amp;tr=udp%3A%2F%2Fexodus.desync.com%3A6969","seeders":1,"leechers":0,"uploader":"jmanwf","files":2,"time":1454464924,"description":"Jack’s otherwise uneventful life takes a sinister turn when he’s suddenly plagued by a series of bizarre sleepwalking episodes. He learns he is the heir to a monstrous family legacy of savagery, slaughter, and unrelenting horror.\r\n\r\n\r\nVideo\r\nID : 2\r\nFormat : AVC\r\nFormat/Info : Advanced Video Codec\r\nFormat profile :   \r\nFormat settings, CABAC : Yes\r\nFormat settings, ReFrames : 4 frames\r\nCodec ID : avc1\r\nCodec ID/Info : Advanced Video Coding\r\nDuration : 1h 35mn\r\nBit rate : 4 713 Kbps\r\nWidth : 1 912 pixels\r\nHeight : 1 008 pixels\r\nDisplay aspect ratio : 1.897\r\nFrame rate mode : Constant\r\nFrame rate : 23.976 fps\r\nColor space : YUV\r\nChroma subsampling : 4:2:0\r\nBit depth : 8 bits\r\nScan type : Progressive\r\nBits/(Pixel*Frame) : 0.102\r\nStream size : 3.14 GiB (90%)\r\nLanguage : English\r\nEncoded date : UTC 2016-02-02 07:07:02\r\nTagged date : UTC 2016-02-02 07:16:09\r\nColor range : Limited\r\nColor primaries : BT.709\r\nTransfer characteristics : BT.709\r\nMatrix coefficients : BT.709\r\n\r\nAudio #1\r\nID : 1\r\nFormat : AAC\r\nFormat/Info : Advanced Audio Codec\r\nFormat profile : LC\r\nCodec ID : 40\r\nDuration : 1h 35mn\r\nBit rate mode : Variable\r\nBit rate : 120 Kbps\r\nMaximum bit rate : 204 Kbps\r\nChannel(s) : 2 channels\r\nChannel positions : Front: L R\r\nSampling rate : 48.0 KHz\r\nCompression mode : Lossy\r\nStream size : 81.8 MiB (2%)\r\nLanguage : English\r\nEncoded date : UTC 2016-02-02 07:07:02\r\nTagged date : UTC 2016-02-02 07:16:09\r\n\r\nAudio #2\r\nID : 3\r\nFormat : AC-3\r\nFormat/Info : Audio Coding 3\r\nMode extension : CM (complete main)\r\nFormat settings, Endianness : Big\r\nCodec ID : ac-3\r\nDuration : 1h 35mn\r\nBit rate mode : Constant\r\nBit rate : 384 Kbps\r\nChannel(s) : 6 channels\r\nChannel positions : Front: L C R, Side: L R, LFE\r\nSampling rate : 48.0 KHz\r\nBit depth : 16 bits\r\nCompression mode : Lossy\r\nStream size : 262 MiB (7%)\r\nLanguage : English\r\nEncoded date : UTC 2016-02-02 07:07:02\r\nTagged date : UTC 2016-02-02 07:16:09\r\n\r\nText\r\nID : 4-CC1\r\nFormat : EIA-608\r\nMuxing mode : Final Cut\r\nCodec ID : c608\r\nDuration : 1h 35mn\r\nBit rate mode : Constant\r\nStream size : 0.00 Byte (0%)\r\nLanguage : English\r\nEncoded date : UTC 2016-02-02 07:07:02\r\nTagged date : UTC 2016-02-02 07:07:16\r\n\r\n \nhttp://s18.postimg.org/9aepvhic9/image.jpg\r\n\r\n\r\n \nhttp://s18.postimg.org/qoyy3rfh5/image.jpg","torrent":{"xt":"urn:btih:28112267e73961f192493999fb052844aabf9426","amp;dn":"Uncaged+%282016%29+1080P+WEB-DL+DD5+1+H+264+","amp;tr":["udp%3A%2F%2Ftracker.leechers-paradise.org%3A6969","udp%3A%2F%2Fzer0day.ch%3A1337","udp%3A%2F%2Fopen.demonii.com%3A1337","udp%3A%2F%2Ftracker.coppersurfer.tk%3A6969","udp%3A%2F%2Fexodus.desync.com%3A6969"],"infoHash":"28112267e73961f192493999fb052844aabf9426","infoHashBuffer":{"type":"Buffer","data":[40,17,34,103,231,57,97,241,146,73,57,153,251,5,40,68,170,191,148,38]},"announce":[],"urlList":[]}}